<?xml version="1.0" encoding="utf-8" ?><svg xmlns="http://www.w3.org/2000/svg" xmlns:xlink="http://www.w3.org/1999/xlink" width="420" height="405" viewBox="275 78 420 405"><path fill="#1D2BAC" transform="scale(0.727679 0.727865)" d="M781.922 121.153C821.986 114.622 859.767 141.784 866.348 181.848C872.93 221.913 845.824 259.739 805.778 266.374C765.658 273.021 727.757 245.848 721.163 205.709C714.57 165.571 741.785 127.696 781.922 121.153Z"/><path fill="#2660C2" transform="scale(0.727679 0.727865)" d="M787.429 125.418C791.733 125.338 798.781 124.99 802.804 125.988C832.503 129.12 863.363 155.797 865.166 186.534C866.001 188.381 866.415 193.867 865.699 195.717C863.281 194.248 863.959 192.7 863.904 190.021C859.887 194.344 851.78 188.755 847.607 186.722C846.354 184.545 842.298 180.819 840.341 178.879C838.942 179.416 833.77 181.295 832.562 181.471C815.751 183.926 819.689 197.285 813.474 209.352C810.154 215.801 812.62 210.52 806.477 212.422L806.275 212.117L808.469 211.478L808.561 210.554L806.902 208.836L807.583 207.859C806.478 206.186 804.839 206.772 802.225 205.387L803.571 203.485C802.815 201.236 803.393 202.046 800.739 200.572C800.997 190.522 798.465 196.637 793.66 194.004L795.048 192.658L791.755 193.514C792.593 191.315 793.638 192.897 794.57 190.627L793.522 190.344L790.766 192.147C786.648 191.584 788.889 190.34 786.203 187.125L785.074 187.604C785.298 190.761 787.4 190.246 787.395 193.509L785.956 193.621C785.972 194.573 785.974 195.268 786.144 196.215L786.26 196.833L785.204 196.879C784.805 195.198 785.218 195.834 784.211 194.723L778.362 198.516C775.859 197.102 774.778 190.117 773.683 189.272C770.849 187.085 771.107 184.323 773.572 180.568C774.706 180.311 774.71 180.392 775.591 179.663C774.714 178.283 774.266 177.898 774.324 176.354C777.1 173.923 778.581 174.133 782.212 173.976C783.179 166.042 784.462 170.744 789.279 165.164C791.997 162.016 790.615 154.869 790.181 150.986C789.173 141.972 771.128 141.072 765.31 137.593C766.69 136.818 768.967 138.049 771.295 138.472C771.292 137.469 771.497 137.107 771.983 136.24C770.658 135.638 770.588 135.575 769.422 134.686C770.685 134.81 771.499 135.058 772.561 134.418C772.246 131.834 772.209 130.303 769.666 129.453C767.135 130.874 766.762 130.93 763.888 131.144C765.232 129.267 775.439 127.258 778.11 126.645L787.429 125.418Z"/><path fill="#1D2BAC" transform="scale(0.727679 0.727865)" d="M809.512 140.48C813.67 139.502 816.906 137.059 821.467 138.224C824.492 140.03 827.836 141.927 830.692 143.944C832.835 145.742 836.741 148.83 838.533 150.751C838.638 156.726 838.692 162.673 839.115 168.637C838.349 171.144 839.445 170.73 838.786 173.501C835.652 176.595 823.869 179.634 819.063 181.089C813.85 175.866 801.478 168.604 794.84 164.475L794.968 146.385C799.196 144.264 804.831 142.586 809.512 140.48Z"/><path fill="white" transform="scale(0.727679 0.727865)" d="M818.398 140.513C822.037 139.909 832.465 148.876 835.357 151.198C836.306 157.627 836.349 165.95 836.533 172.6C832.7 173.907 821.607 178.314 818.521 177.318C812.142 172.514 804.494 167.186 797.588 163.251C797.416 158.414 797.479 153.113 797.441 148.237C804.091 145.267 811.466 142.725 818.398 140.513Z"/><path fill="#3099D3" transform="scale(0.727679 0.727865)" d="M802.804 125.988C832.503 129.12 863.363 155.797 865.166 186.534C860.959 183.989 863.703 180.781 860.747 178.252C859.235 178.733 859.016 179.308 857.991 180.638C858.032 181.224 859.689 188.624 859.936 190.072L858.881 189.843C852.842 181.766 845.715 179.42 845.175 170.952C845.059 172.783 845.04 173.063 844.312 174.74C842.458 175.016 843.484 171.341 839.115 168.637C838.692 162.673 838.638 156.726 838.533 150.751C836.741 148.83 832.835 145.742 830.692 143.944C827.836 141.927 824.492 140.03 821.467 138.224C816.906 137.059 813.67 139.502 809.512 140.48L808.06 140.216C806.254 140.99 805.878 141.17 803.937 141.401C802.649 140.818 802.1 140.702 801.234 139.566C803.023 137.229 808.46 137.102 809.925 134.569L809.379 133.523C806.235 131.632 804.368 131.666 800.803 131.21C798.252 129.734 797.495 130.14 795.944 127.688L797.058 126.967C799.536 126.952 800.453 126.781 802.804 125.988Z"/><path fill="#1D2BAC" transform="scale(0.727679 0.727865)" d="M843.913 152.297C851.48 163.586 854.206 167.233 857.991 180.638C858.032 181.224 859.689 188.624 859.936 190.072L858.881 189.843C852.842 181.766 845.715 179.42 845.175 170.952C844.435 164.937 844.222 158.39 843.913 152.297Z"/><path fill="white" transform="scale(0.727679 0.727865)" d="M847.139 162.508C851.044 166.334 854.195 176.644 855.41 181.995C852.774 179.926 850.245 177.109 847.906 174.662L847.139 162.508Z"/><path fill="#318BD0" transform="scale(0.727679 0.727865)" d="M821.467 138.224L821.109 135.963C824.574 134.318 833.562 140.043 832.291 143.132L830.692 143.944C827.836 141.927 824.492 140.03 821.467 138.224Z"/><path fill="#318BD0" transform="scale(0.727679 0.727865)" d="M787.429 125.418C791.733 125.338 798.781 124.99 802.804 125.988C800.453 126.781 799.536 126.952 797.058 126.967L795.944 127.688C797.495 130.14 798.252 129.734 800.803 131.21C797.767 131.204 791.155 130.483 787.643 130.273C784.003 131.27 779.624 131.502 775.871 131.503C777.271 130.654 778.517 130.119 779.343 128.755L778.11 126.645L787.429 125.418Z"/><path fill="white" transform="scale(0.727679 0.727865)" d="M783.899 133.61C791.809 133 796.248 133.393 804.091 134.253L796.86 137.401L792.087 139.325C788.768 138.008 784.051 136.672 781.204 134.815L781.132 134.168L783.899 133.61Z"/><path fill="#3099D3" transform="scale(0.727679 0.727865)" d="M823.129 187.635C828.195 186.14 837.344 181.646 841.861 182.807C843.145 185.38 844.825 186.77 846.877 188.774C847.523 188.096 847.383 187.812 847.607 186.722C851.78 188.755 859.887 194.344 863.904 190.021C863.959 192.7 863.281 194.248 865.699 195.717C866.153 201.803 863.288 220.763 858.545 224.564C855.866 224.621 856.087 223.701 855.664 221.126L854.732 220.947L852.831 223.021L851.86 222.53C852.781 221.148 856.33 216.545 856.448 215.58C854.813 215.481 855.57 215.33 854.095 216.06C852.683 218.293 853.003 218.614 850.246 219.278L848.011 219.149C845.442 221.509 831.67 224.858 827.519 225.967C825.565 223.842 824.117 221.68 822.454 219.324L816.113 211.642C818.761 203.691 820.899 195.708 823.129 187.635Z"/><path fill="white" transform="scale(0.727679 0.727865)" d="M823.129 187.635C828.195 186.14 837.344 181.646 841.861 182.807C841.536 183.932 840.987 185.437 841.017 186.528C838.299 196.855 836.388 202.493 829.313 210.956C827.683 212.905 823.611 217.368 822.454 219.324L816.113 211.642C818.761 203.691 820.899 195.708 823.129 187.635Z"/><path fill="#2146B5" transform="scale(0.727679 0.727865)" d="M847.607 186.722C851.78 188.755 859.887 194.344 863.904 190.021C863.959 192.7 863.281 194.248 865.699 195.717C866.153 201.803 863.288 220.763 858.545 224.564C855.866 224.621 856.087 223.701 855.664 221.126L854.732 220.947L852.831 223.021L851.86 222.53C852.781 221.148 856.33 216.545 856.448 215.58C854.813 215.481 855.57 215.33 854.095 216.06C852.683 218.293 853.003 218.614 850.246 219.278C853.693 216.287 854.272 210.744 855.262 206.221C855.684 203.897 855.71 201.298 855.814 198.923C852.744 195.563 849.728 192.329 846.877 188.774C847.523 188.096 847.383 187.812 847.607 186.722Z"/><path fill="#95CDE6" transform="scale(0.727679 0.727865)" d="M841.861 182.807C843.145 185.38 844.825 186.77 846.877 188.774C849.728 192.329 852.744 195.563 855.814 198.923C855.71 201.298 855.684 203.897 855.262 206.221C854.272 210.744 853.693 216.287 850.246 219.278L848.011 219.149L847.749 218.845C853.441 215.323 853.219 205.888 854.278 199.403C851.033 195.506 845.882 189.565 842.254 186.213L841.017 186.528C840.987 185.437 841.536 183.932 841.861 182.807Z"/><path fill="#3099D3" transform="scale(0.727679 0.727865)" d="M780.492 217.678C789.547 218.257 798.852 218.063 807.923 217.902L814.813 226.455C816.918 228.458 817.916 229.472 819.72 231.738C816.039 238.842 812.107 246.504 807.082 252.765C798.243 253.636 792.789 253.47 783.904 252.742C780.497 248.979 772.092 236.246 770.499 231.355L771.106 230.244C774.087 225.946 777.218 221.755 780.492 217.678Z"/><path fill="white" transform="scale(0.727679 0.727865)" d="M780.492 217.678C789.547 218.257 798.852 218.063 807.923 217.902L814.813 226.455L814.137 227.42L806.371 230.749C787.956 236.246 787.253 232.374 771.106 230.244C774.087 225.946 777.218 221.755 780.492 217.678Z"/><path fill="#4DA5D8" transform="scale(0.727679 0.727865)" d="M806.371 230.749L814.137 227.42C817.117 233.061 819.249 230.974 815.243 237.476L814.228 237.757C812.024 234.851 815.316 232.882 810.725 230.674L808.514 231.634L806.371 230.749Z"/><path fill="white" transform="scale(0.727679 0.727865)" d="M746.69 182.263C752.102 183.833 758.664 185.556 763.909 187.362C765.985 195.934 769.025 203.578 772.11 211.82C769.781 214.812 764.381 221.408 762.609 224.332L761.59 225.352C757.406 225.577 741.938 219.549 737.23 217.837C733.594 212.874 732.202 205.871 730.999 199.925C733.581 196.583 736.349 193.388 739.29 190.357C741.586 187.793 744.271 184.628 746.69 182.263Z"/><path fill="#318BD0" transform="scale(0.727679 0.727865)" d="M730.999 199.925C733.581 196.583 736.349 193.388 739.29 190.357L739.989 191.014C741.867 193.28 742.501 196.698 743.809 199.582C747.145 206.966 751.757 213.703 757.432 219.484L762.609 224.332L761.59 225.352C757.406 225.577 741.938 219.549 737.23 217.837C733.594 212.874 732.202 205.871 730.999 199.925Z"/><path fill="#4DA5D8" transform="scale(0.727679 0.727865)" d="M730.999 199.925C733.581 196.583 736.349 193.388 739.29 190.357L739.989 191.014C737.97 195.329 730.955 199.387 733.189 205.168C734.471 208.486 736.302 212.669 738.169 215.68C742.291 217.82 753.058 223.14 757.341 222.316C757.827 221.05 757.684 220.791 757.432 219.484L762.609 224.332L761.59 225.352C757.406 225.577 741.938 219.549 737.23 217.837C733.594 212.874 732.202 205.871 730.999 199.925Z"/><path fill="white" transform="scale(0.727679 0.727865)" d="M763.765 140.349C768.628 140.854 782.307 146.328 786.927 148.259L786.938 164.043C781.18 167.43 776.113 171.163 770.707 175.047C769.782 175.801 768.746 176.47 767.757 177.145C763.3 177.862 753.6 173.818 748.925 172.115C748.716 165.082 748.586 158.046 748.535 151.01C753.132 147.086 758.579 143.442 763.765 140.349Z"/><path fill="#4DA5D8" transform="scale(0.727679 0.727865)" d="M828.157 238.358C830.991 234.526 839.61 233.085 844.78 231.018C841.514 234.659 828.989 247.743 824.046 246.885C823.907 245.463 823.806 246.154 824.523 244.779C825.769 242.296 826.673 240.708 828.157 238.358Z"/><path fill="#3099D3" transform="scale(0.727679 0.727865)" d="M828.157 238.358C831.544 237.877 832.693 234.686 836.121 236.656C836.125 240.109 827.777 244.716 824.523 244.779C825.769 242.296 826.673 240.708 828.157 238.358Z"/><path fill="white" transform="scale(0.727679 0.727865)" d="M737.451 162.009C738.795 163.428 738.308 172.328 738.298 174.811C736.368 177.406 733.336 180.729 731.169 183.251L730.478 182.173C730.651 174.871 733.92 168.229 737.451 162.009Z"/><path fill="#E2269D" transform="scale(0.727679 0.727865)" d="M733.216 249.762C736.426 251.882 739.976 255.087 742.959 257.624C737.037 269.481 720.572 289.138 711.577 298.722C687.825 324.028 659.112 345.949 630.053 364.847C574.466 400.998 525.515 423.237 494.598 486.295C482.084 486.527 469.015 486.346 456.457 486.357L446.62 486.395C451.806 475.616 461.576 462.135 468.764 452.669C517.117 389.005 592.508 367.418 656.967 323.812C686.699 304.003 712.543 278.904 733.216 249.762Z"/><path fill="#E2269D" transform="scale(0.727679 0.727865)" d="M751.055 263.477C754.577 264.699 761.3 267.871 765.071 269.457C751.528 296.093 723.618 333.088 703.293 354.797C661.683 399.242 618.995 424.07 601.707 486.386L570.149 486.379L556.923 486.402C581.856 415.937 631.433 391.525 683.183 344.073C711.468 318.138 730.688 295.59 751.055 263.477Z"/><path fill="#E2269D" transform="scale(0.727679 0.727865)" d="M703.51 368.642C705.207 369.377 709.688 377.154 710.992 379.149C718.003 389.815 726.08 399.741 735.098 408.774C777.743 451.128 833.384 470.641 889.679 486.293C883.71 486.421 877.491 486.356 871.498 486.381L824.349 486.407C813.192 486.426 799.54 487.863 789.452 482.865C747.579 462.121 702.571 431.085 685.992 385.402C691.872 379.858 697.712 374.271 703.51 368.642Z"/><path fill="#E2269D" transform="scale(0.727679 0.727865)" d="M708.955 177.673C711.968 185.679 688.758 239.991 686.067 252.963C682.592 269.713 681.409 275.352 681.238 293.331C669.447 304.651 652.024 316.336 638.073 324.857C638.876 305.887 641.725 293.197 646.275 274.953L646.162 274.248C644.827 274.208 636.648 278.867 634.542 279.797C624.562 284.205 615.092 287.254 604.518 289.849L604.569 274.564C613.665 269.339 622.614 265.213 631.258 258.991C662.01 236.854 687.913 208.884 708.955 177.673Z"/><path fill="#E2269D" transform="scale(0.727679 0.727865)" d="M673.484 397.579C674.612 399.051 677.947 407.59 678.788 409.727C691.197 441.235 715.665 463.273 739.554 486.352L718.266 486.334L691.064 486.278C672.614 467.592 659.239 444.503 652.207 419.199C658.983 411.761 666.328 404.664 673.484 397.579Z"/><path fill="#E2269D" transform="scale(0.727679 0.727865)" d="M827.92 269.793L829.086 270.061C828.396 272.132 826.327 274.15 824.822 275.817C794.276 309.654 755.595 340.901 714.279 360.229L713.654 360.19C713.457 358.682 723.676 348.69 725.688 346.647C748.021 323.965 766.594 301.81 782.779 274.294C797.963 276.678 813.505 275.128 827.92 269.793Z"/><path fill="#1D2BAC" transform="scale(0.727679 0.727865)" d="M831.622 529.2L850.529 529.257C854.675 537.295 858.739 545.844 862.756 553.983L875.54 529.294C879.458 529.264 889.833 528.863 893.138 529.784C894.535 532.032 894.384 531.158 894.362 533.399C893.313 535.58 890.726 536.831 888.583 538.671C887.984 548.759 888.41 562.082 888.472 572.413C891.22 573.564 894.593 574.896 894.809 578.389C892.298 582.864 876.203 582.239 871.882 580.834C869.717 576.289 873.101 574.75 876.109 572.641C877.481 571.679 877.203 569.583 877.257 567.959C877.294 561.428 877.585 552.607 877 546.283C873.489 553.557 869.491 560.862 865.695 568.013C863.547 568.116 860.085 567.899 857.831 567.824L846.769 546.049L847.177 572.227C850.956 573.772 851.297 573.72 853.516 576.857C854.1 583.572 831.121 583.643 830.56 577.381C831.779 574.42 833.957 573.662 836.702 572.508C836.799 562.386 837.3 549.826 836.294 539.75C836.093 537.731 834.344 537.104 832.411 535.868C831.096 533.936 831.535 531.685 831.622 529.2Z"/><path fill="#1D2BAC" transform="scale(0.727679 0.727865)" d="M455.559 529.288C464.834 529.229 475.42 528.671 484.513 529.643C499.323 531.228 503.772 544.728 490.964 553.86C500.904 558.811 503.498 567.293 496.826 576.514C488.27 583.439 467.378 581.429 455.543 581.407C455.179 571.159 457.669 575.988 459.68 572.43C461.701 568.853 460.755 542.223 460.715 538.159C459.282 537.558 457.86 536.93 456.45 536.276C454.879 533.5 455.486 532.997 455.559 529.288Z"/><path fill="white" transform="scale(0.727679 0.727865)" d="M473.165 558.527C481.292 558.259 492.146 558.804 486.297 570.589C481.616 572.984 478.44 572.463 473.222 572.408L473.165 558.527Z"/><path fill="white" transform="scale(0.727679 0.727865)" d="M473.278 537.788C480.754 537.775 490.052 538.47 484.599 548.699C480.858 550.723 477.417 550.307 473.248 550.252L473.278 537.788Z"/><path fill="#1D2BAC" transform="scale(0.727679 0.727865)" d="M524.122 529.193L536.874 529.162C542.12 543.01 547.762 559.176 553.494 572.641C556.795 573.887 557.409 573.906 559.017 577.105C558.937 579.074 559.195 578.312 557.804 579.937C553.579 581.799 538.551 583.108 535.313 580.29C533.433 576.051 537.445 576.103 539.216 571.451C538.839 569.642 538.661 569.251 537.279 568.019C532.562 567.941 524.826 567.367 520.667 569.188C518.13 573.274 524.608 573.861 524.804 579.864L523.504 581.23C520.087 581.663 504.966 582.097 502.646 580.36C501.458 573.051 506.358 575.482 508.691 569.528C513.94 556.129 518.964 542.633 524.122 529.193Z"/><path fill="white" transform="scale(0.727679 0.727865)" d="M529.799 542.682C531.5 545.398 536.108 556.669 534.224 559.553L531.51 559.779C521.462 560.216 525.019 556.015 527.398 549.196C528.154 547.029 529.008 544.838 529.799 542.682Z"/><path fill="#1D2BAC" transform="scale(0.727679 0.727865)" d="M793.867 529.194L806.146 529.136C812.394 543.187 816.499 558.611 823.76 572.14C825.066 574.574 828.586 573.399 829.425 578.186C829.148 578.949 828.662 581.038 827.733 581.068C823.331 581.211 806.44 583.123 804.744 578.691C807.06 572.927 810.91 574.542 808.338 568.182C803.464 568.043 795.255 567.52 790.792 568.78C789.089 570.751 790.587 572.281 792.015 574.212C794.406 577.447 793.818 577.354 793.731 581.224C788.405 581.223 777.868 581.606 773.091 580.804L771.992 579.026C771.726 573.31 775.774 576.161 778.481 569.629C783.93 556.482 788.951 542.527 793.867 529.194Z"/><path fill="white" transform="scale(0.727679 0.727865)" d="M799.527 542.724C800.82 544.457 805.511 557.615 804.5 559.568L801.06 559.808C798.837 559.913 797.035 560.306 795.283 559.129C793.636 555.659 797.944 547.192 799.527 542.724Z"/><path fill="#1D2BAC" transform="scale(0.727679 0.727865)" d="M742.211 528.571C750.54 527.847 756.548 528.929 764.172 532.321C764.032 536.954 765.267 546.282 759.714 547.026C753.311 544.443 755.371 541.445 751.347 538.273C745.488 535.945 736.418 539.827 734.438 546.041C732.115 553.335 732.492 557.573 734.711 564.469C737.393 572.803 751.928 575.952 754.835 567.606C755.012 561.505 750.896 562.615 747.914 557.209C748.286 553.512 752.684 554.089 755.697 554.122C760.638 554.264 767.34 552.24 770.072 556.618C770.165 558.453 770.416 559.424 769.493 560.989C767.745 561.245 767.091 561.164 765.793 562.238C764.842 565.664 765.302 573.415 765.393 577.342C716.451 601.127 704.169 535.484 742.211 528.571Z"/><path fill="#1D2BAC" transform="scale(0.727679 0.727865)" d="M899.603 529.268L938.727 529.235C938.742 533.567 939.962 543.195 935.427 545.114C933.073 544.211 931.076 541.006 929.497 538.902C925.806 537.796 920.877 538.193 916.925 538.279L916.995 550.202L932.706 550.206L932.753 558.711L916.895 558.714C916.87 561.553 916.422 570.312 917.626 572.321L930.599 572.331C931.198 570.094 931.422 568.956 932.575 566.883C934.573 565.437 936.955 565.948 939.597 566.071L939.593 581.441L899.388 581.488C899.345 579.367 899.44 577.969 899.613 575.896C901.412 573.381 901.602 573.897 904.881 572.464L904.807 538.227C903.023 537.502 902.147 537.044 900.475 536.084C898.99 534.185 899.468 531.735 899.603 529.268Z"/><path fill="#1D2BAC" transform="scale(0.727679 0.727865)" d="M527.57 604.09C529.564 603.974 531.117 604.121 533.1 604.363C549.542 606.37 552.763 630.01 541.959 640.053C538.831 642.96 536.354 643.57 532.241 644.66C521 644.928 512.979 641.047 510.865 629.354C508.489 616.21 514.489 606.235 527.57 604.09Z"/><path fill="white" transform="scale(0.727679 0.727865)" d="M526.186 611.137C537.295 610.268 539.551 618.796 538.2 628.435C537.6 632.722 535.985 635.068 532.37 637.457C531.621 637.487 528.76 637.615 528.237 637.458C516.847 634.024 517.929 617.323 526.186 611.137Z"/><path fill="#1D2BAC" transform="scale(0.727679 0.727865)" d="M796.566 604.087C821.833 602.416 825.707 638.128 801.829 644.611C790.836 645.074 782.641 641.697 780.415 630.157C777.89 617.066 783.365 606.527 796.566 604.087Z"/><path fill="white" transform="scale(0.727679 0.727865)" d="M795.893 611.196C808.989 610.708 809.879 622.723 806.248 632.826C805.519 634.853 803.724 636.121 801.993 637.371C801.268 637.408 798.085 637.571 797.625 637.419C786.556 633.773 787.68 617.249 795.893 611.196Z"/><path fill="#1D2BAC" transform="scale(0.727679 0.727865)" d="M642.641 604.5C647.572 604.443 652.503 604.42 657.434 604.43C671.284 604.507 680.367 609.532 679.655 624.661C679.326 631.676 677.69 635.797 672.559 640.615C665.76 644.198 651.64 645.328 644.539 643.955C641.256 641.515 646.41 636.433 646.45 633.376C646.527 627.547 647.374 616.331 645.637 611.062C642.051 608.522 642.61 608.58 642.641 604.5Z"/><path fill="white" transform="scale(0.727679 0.727865)" d="M655.66 611.075C658.859 611.039 662.041 610.772 664.894 612.501C672.563 617.147 671.267 628.073 667.066 634.675C651.049 645.423 655.551 620.636 655.66 611.075Z"/><path fill="#1D2BAC" transform="scale(0.727679 0.727865)" d="M851.68 630.336C851.765 624.9 852.272 617.21 851.306 611.968C851.146 611.099 848.965 610.029 848.073 609.525C847.326 607.579 847.394 607.291 847.794 605.23C849.513 603.867 861.33 604.267 863.451 605.299C863.726 608.001 863.963 607.141 863.045 609.29C862.219 609.738 861.289 610.171 860.593 610.809C858.802 612.453 859.58 640.025 859.567 644.295L850.276 644.319L834.218 618.507C834.256 621.71 833.732 634.002 835.1 637.172C835.31 637.657 838.395 639.574 839.446 641.868C837.782 645.054 825.282 644.823 822.669 643.656L821.909 641.503C822.811 638.713 825.513 637.912 825.701 637.077C826.988 631.376 826.301 617.1 826.277 611.532C821.886 609.175 822.429 609.193 822.401 604.518L835.783 604.53L851.68 630.336Z"/><path fill="#1D2BAC" transform="scale(0.727679 0.727865)" d="M597.335 604.509L610.517 604.543C615.981 613.1 621.292 621.753 626.449 630.499C626.487 624.906 626.695 618.207 626.057 612.582C625.854 610.793 624.866 610.706 623.067 609.627C621.825 607.523 622.173 608.412 622.162 605.567L623.065 604.664C626.601 604.509 635.101 603.91 637.94 605.266L638.334 607.728C637.527 609.811 637.322 609.429 635.137 610.785C633.341 614.117 634.293 638.358 634.269 644.031L624.988 644.095C619.727 635.489 614.358 626.949 608.882 618.478C608.891 622.48 608.595 632.827 609.653 636.862C609.81 637.461 613.788 639.938 614.233 642.458C611.903 644.937 601.697 644.056 598.223 643.772C595.353 643.538 600.86 635.481 600.951 634.091C601.318 628.488 601.963 616.355 600.323 611.112C596.769 608.376 597.415 608.683 597.335 604.509Z"/><path fill="#1D2BAC" transform="scale(0.727679 0.727865)" d="M603.239 529.321C609.879 529.313 616.581 529.094 623.218 529.304C625.463 529.375 626.54 529.557 627.218 531.69C626.18 534.609 623.116 537.101 620.816 539.255C619.849 547.532 620.394 563.405 620.472 572.302L631.975 572.302C633.198 567.781 632.948 566.195 637.269 564.061C639.703 564.017 638.747 563.736 640.854 565.269C642.265 567.36 641.822 569.899 641.728 572.511L641.694 581.385C636.545 581.352 605.593 582.04 603.631 580.61C601.914 572.826 606.896 575.04 607.573 572.807C609.795 565.469 607.754 556.033 608.402 548.096C608.786 543.383 609.253 538.287 604.44 536.093L603.913 535.857C602.626 533.46 603.166 532.46 603.239 529.321Z"/><path fill="#1D2BAC" transform="scale(0.727679 0.727865)" d="M561.504 529.464C567.396 529.517 579.13 528.11 583.417 530.814C584.723 533.008 584.422 531.999 584.246 534.882C582.513 537.342 582.045 536.903 578.742 538.248L578.736 572.261L589.83 572.279C591.014 567.77 590.796 565.808 595.326 564C600.948 564.778 599.815 569.488 599.588 573.867L599.617 581.351C592.448 581.403 565.372 582.629 561.275 579.435C559.355 575.642 563.456 573.853 566.503 572.538C566.596 563.556 567.274 546.885 565.871 538.449C564.55 537.23 563.912 536.898 562.359 535.958C560.966 534.197 561.404 531.778 561.504 529.464Z"/><path fill="#1D2BAC" transform="scale(0.727679 0.727865)" d="M678.237 529.351L688.033 529.326L688.243 572.247L698.36 573.272L698.319 581.197C693.932 581.253 668.154 581.903 665.396 580.769C665.3 578.542 664.951 576.188 665.98 574.255C668.023 572.315 672.817 572.477 675.945 572.229L676.032 541.395C672.177 543.566 668.249 546.008 664.442 548.298L660.107 540.353C666.081 536.573 672.126 532.905 678.237 529.351Z"/><path fill="#1D2BAC" transform="scale(0.727679 0.727865)" d="M413.142 529.726L423.144 529.578C423.103 543.816 423.166 558.054 423.331 572.291C426.431 572.459 430.017 572.911 433.145 573.227L433.144 581.34C423.421 581.388 409.996 581.837 400.596 581.225L400.794 573.28C404.179 573.004 407.728 572.582 411.122 572.236L411.016 541.466C406.665 544.305 404.208 545.883 399.515 548.115L395.369 540.366C400.862 536.799 407.45 533.1 413.142 529.726Z"/><path fill="#1D2BAC" transform="scale(0.727679 0.727865)" d="M697.955 604.492L707.176 604.507C711.069 614.196 714.259 624.231 718.392 633.847C720.197 638.047 721.066 636.985 723.323 639.866C723.595 642.141 723.753 641.234 722.716 643.291C719.991 645.184 708.637 644.896 706.11 641.886C706.369 638.781 708.515 639.092 709.402 635.925C708.417 634.254 709.001 634.792 706.938 634.069C703.458 634.009 697.059 633.357 694.561 635.441C694.935 638.921 698.072 639.377 698.058 642.824L696.929 643.909C692.881 644.519 685.89 644.553 681.886 643.822L681.229 642.448C681.548 640.612 682.039 639.785 683.479 638.543C688.071 634.584 695.221 611.742 697.955 604.492Z"/><path fill="white" transform="scale(0.727679 0.727865)" d="M701.883 614.875C703.186 615.925 706.398 625.18 706.157 627.098L704.942 627.589C702.358 627.671 700.575 628.254 698.814 626.233C698.238 623.746 700.87 617.771 701.883 614.875Z"/><path fill="#1D2BAC" transform="scale(0.727679 0.727865)" d="M552.257 604.501C557.636 604.443 563.417 604.257 568.743 604.714C570.245 606.074 569.789 605.401 570.301 607.466C569.515 609.375 567.893 610.143 566.111 611.355C564.744 616.785 564.352 631.733 568.726 635.84C570.029 637.039 571.756 637.672 573.526 637.598C583.404 637.274 580.584 618.083 580.001 611.552C578.698 610.536 577.41 609.502 576.137 608.45C575.527 606.323 575.459 607.244 576.656 604.96C579.698 604.196 589.348 604.465 592.991 604.476C594.112 611.551 589.154 609.173 589.446 612.435C591.361 633.835 587.369 653.926 560.921 641.007C553.55 637.407 557.765 617.755 555.858 611.506C555.245 609.496 552.772 611.629 552.257 604.501Z"/><path fill="#1D2BAC" transform="scale(0.727679 0.727865)" d="M476.838 604.505L506.815 604.535C506.912 608.58 507.297 612.353 505.403 615.997L503.905 616.341C502.577 615.521 500.808 612.843 499.785 611.47C497.343 610.818 493.051 611.113 490.367 611.167L490.371 620.898C494.674 620.921 499.431 619.143 502.257 622.565C502.601 624.633 502.643 624.911 502.054 626.912L500.227 627.317L490.279 627.406C490.242 630.012 489.862 635.339 490.789 637.473L494.467 638.735C495.917 640.893 495.977 641.663 494.439 643.463C491.773 644.431 480.069 644.438 477.488 643.537C476.977 640.405 480.741 635.667 480.914 633.037C481.326 627.553 480.996 621.953 480.97 616.476C480.929 608.172 477.215 612.897 476.838 604.505Z"/><path fill="#1D2BAC" transform="scale(0.727679 0.727865)" d="M721.625 604.554L755.23 604.545C755.309 607.98 755.977 614.283 754.247 616.723C750.252 618.623 748.976 614.424 747.059 611.231C745.088 610.928 745.904 610.752 744.102 612.016C741.36 616.927 742.584 629.929 743.193 635.798C743.363 637.435 744.938 637.945 746.366 638.76L747.348 639.107C747.913 640.991 748.102 641.348 747.384 643.143C744.664 644.918 734.041 644.374 730.44 644.04C729.555 642.909 729.96 641.613 730.014 639.823C735.635 634.295 734.38 618.43 732.797 611.193C726.639 610.463 730.069 614.379 725.698 616.614C724.046 616.799 723.397 617.058 722.008 616.32C721.021 613.475 721.52 607.79 721.625 604.554Z"/><path fill="#1D2BAC" transform="scale(0.727679 0.727865)" d="M758.132 604.525C762.716 604.493 770.091 604.232 774.374 604.896C775.971 607.697 772.356 610.615 771.592 613.255C770.191 619.367 771.087 626.898 771.247 633.22C771.43 640.452 774.738 635.923 775.377 644.086C772.243 644.169 760.639 644.976 758.636 643.292C758.561 641.662 759.684 638.537 760.556 637.202C763.011 633.441 762.433 614.503 760.979 610.912C757.441 608.517 758.186 608.533 758.132 604.525Z"/></svg>